<svg height="700" width="1730" viewbox="0 0 700 1730" fill="none" xmlns="http://www.w3.org/2000/svg">
    <path fill-rule="evenodd" clip-rule="evenodd" d="M50.5651 749.882L69.5 861H0V0L1299.5 6.10352e-05H1848.5V861H1802L1774.93 720.745C1774.68 719.419 1773.57 718.427 1772.22 718.322L1737.39 715.609C1736.51 715.54 1735.7 715.083 1735.19 714.361L1724.93 700.001C1724.1 698.838 1724.2 697.249 1725.18 696.206L1730.11 690.948C1730.68 690.343 1731.47 690 1732.3 690H1741.5C1742.44 690 1743.33 689.555 1743.9 688.8L1751.25 678.994C1752.41 677.458 1751.84 675.25 1750.09 674.46L1738.43 669.194C1738.27 669.122 1738.12 669.038 1737.98 668.94C1737.86 668.863 1737.75 668.777 1737.65 668.684L1729.26 661.092C1728.23 660.159 1727.97 658.64 1728.64 657.421L1732.15 651.053C1732.67 650.095 1732.64 648.926 1732.05 648.002L1723.5 634.5L1704.64 598.27C1704.55 598.091 1704.44 597.921 1704.31 597.764L1692.68 583.458C1691.96 582.566 1691.81 581.339 1692.29 580.298L1701.82 559.879C1701.94 559.627 1702.02 559.361 1702.07 559.088L1704.26 545.479C1704.41 544.548 1704.99 543.742 1705.83 543.302L1713.35 539.344C1715.97 537.965 1714.99 534 1712.03 534C1711.36 534 1710.72 533.767 1710.21 533.343L1703.95 528.121C1702.82 527.185 1702.54 525.575 1703.27 524.31L1708.38 515.506C1709.54 513.506 1708.1 511 1705.79 511H1700.61C1698.21 511 1696.78 508.33 1698.11 506.336L1699.28 504.578C1700.52 502.713 1699.36 500.193 1697.13 499.934L1683.85 498.389C1682.06 498.182 1680.86 496.468 1681.27 494.722L1684.25 482.08C1684.41 481.383 1684.32 480.65 1683.99 480.015L1678.14 468.71C1677.48 467.428 1677.82 465.856 1678.96 464.968L1695.91 451.716C1698.31 449.839 1696.71 445.992 1693.68 446.377L1682.58 447.79C1680.2 448.093 1678.44 445.619 1679.51 443.473L1684.18 434.133C1684.39 433.717 1684.5 433.258 1684.5 432.792V398.334C1684.5 397.208 1683.87 396.177 1682.87 395.664L1664 386L1619.63 357.406C1619.22 357.139 1618.87 356.775 1618.64 356.346L1607.38 336.182C1607.13 335.735 1607 335.231 1607 334.719V326.764C1607 325.956 1606.67 325.182 1606.09 324.617L1587.37 306.353C1586.81 305.806 1586.06 305.5 1585.28 305.5H1577.41C1576.52 305.5 1575.67 305.101 1575.1 304.411L1567.4 295.089C1566.83 294.399 1565.98 294 1565.09 294H1547.45C1546.83 294 1546.23 293.808 1545.72 293.451L1522.27 276.896C1521.47 276.334 1521 275.42 1521 274.446V263.42C1521 263.141 1520.96 262.864 1520.88 262.596L1508.18 218.146C1508.06 217.721 1507.85 217.327 1507.56 216.995L1501.28 209.818C1501.09 209.607 1500.88 209.423 1500.65 209.271L1478.74 195.154C1478.58 195.052 1478.43 194.934 1478.29 194.803L1450.37 168.166C1448.57 166.456 1445.6 167.535 1445.32 169.998L1443.6 185.084C1443.21 188.467 1438.38 188.694 1437.68 185.363L1432.64 161.419C1432.15 159.088 1429.27 158.231 1427.58 159.916L1425.9 161.597C1424.63 162.873 1422.52 162.742 1421.41 161.318L1420.34 159.943C1420.12 159.65 1419.95 159.318 1419.84 158.963L1417.3 150.507C1417.11 149.855 1416.7 149.289 1416.14 148.902L1357.4 108.275C1357.13 108.093 1356.84 107.954 1356.54 107.864L1290.91 88.6212C1290.64 88.5408 1290.35 88.5 1290.07 88.5H1282C1280.34 88.5 1279 87.1569 1279 85.5V84.462C1279 83.2702 1278.29 82.1913 1277.2 81.7136L1273.28 79.9956C1271.96 79.418 1270.41 79.8607 1269.6 81.05L1266.66 85.3424C1265.56 86.9489 1263.25 87.0994 1261.95 85.6487L1256 79L1246.62 70.4063C1245.25 69.1491 1243.08 69.4305 1242.07 70.9955L1241.33 72.1608C1240.35 73.6719 1238.28 73.9963 1236.89 72.8543L1231.29 68.2363C1231.1 68.0794 1230.89 67.9466 1230.66 67.8409L1212 59L1199.54 52.2922C1199.18 52.0994 1198.87 51.8358 1198.62 51.5175L1185.77 35.3568C1184.59 33.8774 1182.36 33.8406 1181.14 35.2806L1177.86 39.1389C1176.49 40.7519 1173.92 40.4757 1172.92 38.6077L1167.4 28.2478C1167.14 27.7588 1166.75 27.3517 1166.27 27.0714L1154.34 20.0771C1153.24 19.432 1151.85 19.5533 1150.88 20.3793L1144.05 26.181C1143.11 26.9772 1141.79 27.1213 1140.7 26.5445L1127.28 19.4135C1126.77 19.1435 1126.2 19.0254 1125.62 19.0732L1100.12 21.1986C1098.49 21.334 1097.61 23.1635 1098.51 24.5202C1099.41 25.8676 1098.55 27.686 1096.93 27.8395L1049.04 32.4013C1048.37 32.465 1047.7 32.2851 1047.15 31.895C1045.76 30.9 1043.81 31.3849 1043.04 32.916L1040.22 38.5646C1040.07 38.853 1039.88 39.1162 1039.66 39.3442L1039.3 39.703C1038.26 40.74 1036.63 40.8752 1035.43 40.0229L1032.04 37.6022C1031.1 36.929 1029.85 36.8584 1028.84 37.4209L1024.09 40.059C1022.72 40.8236 1020.98 40.2068 1020.4 38.7451C1019.89 37.478 1018.49 36.8142 1017.19 37.2212L1011.5 39L995.407 42.2186C994.517 42.3966 993.595 42.1624 992.898 41.5816L992.6 41.3336C991.638 40.5317 990.279 40.4121 989.191 41.0335L985.99 42.8632C984.815 43.5344 983.336 43.3364 982.38 42.3797L980.967 40.9669C979.669 39.6688 977.52 39.8307 976.43 41.3087L971.852 47.5229C971.619 47.8379 971.451 48.1953 971.356 48.5749L970.62 51.5208C970.54 51.8381 970.41 52.1403 970.233 52.4155L969.171 54.0668C967.848 56.125 964.75 55.8188 963.856 53.5415L961.167 46.6979C960.757 45.6548 959.8 44.9271 958.686 44.811L937.441 42.598C936.828 42.5342 936.211 42.6604 935.673 42.9594L927.907 47.2741C927.637 47.4238 927.392 47.6142 927.181 47.8385L911.488 64.482C911.167 64.8226 910.771 65.0833 910.331 65.2433L902.513 68.0863C901.081 68.607 899.486 67.9715 898.804 66.6085L898.086 65.1717C897.453 63.9053 896.02 63.254 894.65 63.6093L884.184 66.3226C883.734 66.4393 883.263 66.4498 882.809 66.3534L867.761 63.1614C867.262 63.0556 866.744 63.0788 866.256 63.2288L848.908 68.5666C848.02 68.84 847.055 68.6861 846.296 68.1502L842.341 65.3583C840.685 64.1897 838.371 64.9648 837.754 66.8949L836.265 71.5468C835.642 73.4939 833.297 74.2611 831.643 73.0587L828.765 70.9651C826.782 69.523 824 70.9395 824 73.3913V80.3341C824 81.8064 822.806 83 821.334 83C819.998 83 818.868 82.0109 818.692 80.6864L818.347 78.1035C818.148 76.6131 816.877 75.5 815.373 75.5H814.699C813.645 75.5 812.668 74.9471 812.126 74.0435L806.222 64.2034C805.774 63.4568 804.967 63 804.097 63H801.619C800.19 63 799.525 64.7715 800.6 65.7126C801.13 66.1764 801.28 66.9396 800.965 67.5695L799 71.5L798.022 74.1073C797.693 74.9848 796.973 75.6581 796.075 75.9274L793.481 76.7058C792.845 76.8965 792.164 76.8711 791.544 76.6334L758.474 63.9491C757.061 63.407 755.465 64.0027 754.753 65.3383L749.853 74.5265C748.92 76.2743 746.58 76.6549 745.142 75.2926L741.396 71.7439C740.022 70.4416 737.764 70.9627 737.099 72.7357C737.033 72.9114 736.949 73.0796 736.847 73.2374L723.5 94L719.391 101.761C719.135 102.245 718.752 102.649 718.283 102.93L717.454 103.428C716.877 103.774 716.148 103.736 715.61 103.332C714.968 102.851 714.073 102.9 713.487 103.448L699.865 116.191C699.309 116.711 698.577 117 697.815 117H687.827C686.982 117 686.176 117.357 685.607 117.982L681.5 122.5L678.222 126.188C677.756 126.713 677.12 127.057 676.425 127.161L667.776 128.459C667.593 128.486 667.412 128.531 667.236 128.592L656.479 132.334C656.162 132.444 655.829 132.5 655.493 132.5H648.5C647.556 132.5 646.667 132.945 646.1 133.7L644.639 135.648C644.226 136.199 643.635 136.591 642.967 136.759L638 138L627.5 140.5L607.295 143.255C606.191 143.406 605.262 144.156 604.881 145.203L603.681 148.504C603.561 148.832 603.5 149.179 603.5 149.529V167.922C603.5 168.304 603.427 168.682 603.285 169.037L597.889 182.527C597.637 183.157 597.606 183.854 597.801 184.504L601.515 196.885C601.816 197.888 601.572 198.975 600.872 199.754L598.183 202.741C597.74 203.233 597.472 203.858 597.422 204.518L596.07 222.093C596.024 222.684 596.155 223.276 596.446 223.794L600.115 230.315C600.367 230.764 600.5 231.271 600.5 231.786V234.944C600.5 236.356 599.355 237.5 597.943 237.5C596.795 237.5 595.787 238.266 595.48 239.373L593.578 246.221C593.526 246.407 593.457 246.587 593.37 246.76L587.333 258.834C587.114 259.271 586.792 259.649 586.394 259.933L580.782 263.941C580.273 264.305 579.664 264.5 579.039 264.5H569.347C568.49 264.5 567.674 264.867 567.105 265.507L549.402 285.423C548.561 286.369 548.404 287.741 549.01 288.853L565.634 319.329C565.874 319.769 566 320.263 566 320.765V324.25C566 325.493 567.007 326.5 568.25 326.5C569.493 326.5 570.5 327.508 570.5 328.75V329.918C570.5 330.908 570.989 331.835 571.806 332.394L577.382 336.209C578.804 337.182 579.116 339.149 578.066 340.514L575.901 343.329C575.333 344.068 574.454 344.5 573.523 344.5H571C569.343 344.5 568 345.843 568 347.5V350.111C568 350.691 567.832 351.259 567.515 351.746L563.63 357.723C562.555 359.377 560.205 359.561 558.885 358.095L558.368 357.52C557.543 356.603 557.363 355.275 557.914 354.171L558.183 353.634C558.392 353.217 558.5 352.758 558.5 352.292V333.902C558.5 333.635 558.464 333.37 558.394 333.113L557.603 330.211C557.247 328.906 556.061 328 554.709 328H550.126C548.852 328 547.717 327.196 547.295 325.995L541.633 309.878C541.545 309.627 541.424 309.389 541.273 309.171L526.72 288.046C526.26 287.377 526.09 286.551 526.249 285.755L527.354 280.231C527.45 279.751 527.662 279.302 527.971 278.923L556.086 244.459C557.315 242.953 556.808 240.693 555.054 239.855L538.038 231.734C537.084 231.279 535.961 231.359 535.082 231.946L509.883 248.745C508.768 249.488 507.296 249.402 506.276 248.535L499.213 242.531C498.454 241.886 497.426 241.66 496.467 241.926L482.044 245.932C480.819 246.273 479.513 245.804 478.783 244.762L477.319 242.671C476.801 241.93 476.644 240.995 476.893 240.126L478.439 234.715C478.479 234.572 478.51 234.426 478.529 234.279L479.558 226.388C479.792 224.593 478.394 223 476.583 223H471.69C470.926 223 470.19 223.292 469.634 223.816L462.866 230.185C462.31 230.709 461.574 231 460.81 231H449.279C449.093 231 448.908 230.983 448.726 230.949L434.62 228.304C433.611 228.115 432.769 227.423 432.388 226.47L431.994 225.486C431.428 224.07 432.014 222.454 433.358 221.731L435.922 220.35C436.894 219.827 437.5 218.812 437.5 217.708V214.24C437.5 212.171 435.453 210.723 433.502 211.411L430.358 212.521C429.499 212.824 428.825 213.5 428.524 214.359L425.61 222.685C425.537 222.894 425.441 223.095 425.323 223.284L420.899 230.361C420.637 230.781 420.483 231.258 420.45 231.752L419.028 253.075C419.01 253.357 418.951 253.635 418.854 253.901L415.336 263.575C415.118 264.176 414.713 264.691 414.181 265.046L407.014 269.824C406.364 270.258 405.908 270.928 405.745 271.692L403.155 283.777C403.053 284.252 402.837 284.695 402.526 285.069L400.249 287.801C399.068 289.218 396.901 289.244 395.687 287.856L391.379 282.934C391.129 282.647 390.935 282.316 390.808 281.957L388.439 275.243C388.161 274.455 387.548 273.831 386.766 273.537C385.258 272.972 383.584 273.778 383.086 275.309L377.593 292.177C377.232 293.289 377.548 294.509 378.405 295.305L383.041 299.61C383.653 300.178 384 300.974 384 301.808V307.292C384 307.758 383.892 308.217 383.683 308.634L381.147 313.707C380.738 314.524 379.979 315.111 379.086 315.3L366.378 317.996C364.991 318.29 364 319.514 364 320.931V327.048C364 327.668 363.808 328.272 363.451 328.778L358.896 335.23C358.334 336.027 357.42 336.5 356.446 336.5H351.079C349.828 336.5 348.709 335.724 348.27 334.554L344.691 325.01C344.565 324.673 344.5 324.316 344.5 323.956V315.455C344.5 315.154 344.455 314.854 344.365 314.566L340.249 301.302C340.086 300.778 340.07 300.218 340.204 299.685L344.248 283.51C344.411 282.856 344.35 282.166 344.073 281.551L343.883 281.129C342.681 278.459 338.758 278.916 338.202 281.79L337.072 287.629C337.024 287.875 336.943 288.114 336.831 288.339C335.753 290.494 332.624 290.33 331.777 288.073L331.511 287.364C331.189 286.503 330.488 285.837 329.612 285.559L321.277 282.907C320.517 282.665 320 281.958 320 281.16C320 279.876 318.714 278.99 317.515 279.447L311.018 281.922C310.071 282.283 309.006 282.141 308.186 281.545L304.416 278.803C304.141 278.603 303.901 278.357 303.708 278.076L298.634 270.696C298.545 270.566 298.466 270.429 298.398 270.286L295.762 264.751C294.942 263.028 292.44 263.181 291.836 264.992C291.407 266.279 289.896 266.838 288.733 266.14L288.099 265.76C286.906 265.044 285.366 265.346 284.531 266.458L281.82 270.073C281.608 270.356 281.448 270.673 281.347 271.011L278.608 280.141C278.536 280.379 278.435 280.608 278.307 280.822L262 308L250.5 328L244 339.5L235.088 361.781C235.029 361.927 234.983 362.077 234.948 362.23L232.5 373L229.591 385.121C229.531 385.373 229.438 385.616 229.315 385.843L223.016 397.541C222.683 398.161 222.142 398.643 221.489 398.905L218.421 400.132C217.823 400.371 217.318 400.796 216.98 401.345L210.034 412.632C209.688 413.195 209.165 413.628 208.547 413.863L200.381 416.974C199.51 417.306 198.535 417.214 197.741 416.725L194.891 414.972C193.846 414.328 192.5 415.08 192.5 416.308C192.5 417.012 192.03 417.631 191.351 417.819L185.555 419.429C184.325 419.771 183.013 419.296 182.286 418.246L179.533 414.271C179.186 413.769 179 413.173 179 412.563V405.42C179 404.25 178.32 403.186 177.257 402.696L175.939 402.088C174.333 401.346 172.5 402.52 172.5 404.288C172.5 405.051 172.141 405.77 171.531 406.227L169.067 408.075C168.694 408.355 168.392 408.717 168.183 409.134L166.356 412.788C166.123 413.255 165.772 413.653 165.337 413.942L162.408 415.895C161.129 416.747 159.393 416.286 158.706 414.912C158.273 414.047 157.389 413.5 156.421 413.5H152.854C151.718 413.5 150.679 414.142 150.171 415.159L149.317 416.867C149.108 417.283 149 417.743 149 418.208V420.854C149 422.315 147.815 423.5 146.354 423.5C145.241 423.5 144.247 424.196 143.867 425.242L142.927 427.825C142.654 428.577 142.091 429.189 141.365 429.524L137.743 431.196C136.68 431.686 136 432.75 136 433.92V439C136 439.649 135.789 440.281 135.4 440.8L116.805 465.594C116.603 465.863 116.448 466.164 116.346 466.484L113.275 476.135C113.096 476.699 112.753 477.198 112.291 477.568L103.402 484.679C103.136 484.891 102.908 485.148 102.728 485.437L91.9521 502.773C91.6566 503.248 91.5 503.797 91.5 504.357V510.042C91.5 510.346 91.454 510.648 91.3634 510.937L89 518.5L83.7541 530.423C83.5865 530.803 83.5 531.215 83.5 531.631V543.429C83.5 544.122 83.2604 544.793 82.8219 545.329L79.3496 549.573C79.1185 549.855 78.9408 550.177 78.8254 550.524L74 565L69.5974 587.502C69.5329 587.832 69.4136 588.148 69.2445 588.438L59.258 605.558C59.0872 605.85 58.9673 606.17 58.9033 606.503L56.7531 617.684C56.5921 618.521 56.082 619.251 55.3506 619.69L50.4565 622.626C49.5529 623.168 49 624.145 49 625.199V630.169C49 630.713 48.8522 631.246 48.5725 631.713L45.1038 637.494C44.7156 638.141 44.5855 638.91 44.7394 639.649L46.5459 648.32C46.8156 649.615 46.2062 650.933 45.0456 651.566L43.0634 652.647C42.0997 653.173 41.5 654.183 41.5 655.281V683.05C41.5 684.236 40.8018 685.31 39.7184 685.792L38.7816 686.208C37.6982 686.69 37 687.764 37 688.95V700.257C37 701.053 36.6839 701.816 36.1213 702.379L31.8123 706.688C30.4029 708.097 30.7344 710.464 32.4767 711.432L32.6337 711.519C33.1963 711.831 33.6434 712.316 33.9092 712.903L50.34 749.147C50.4462 749.381 50.5219 749.628 50.5651 749.882ZM591 157.5L592.568 153.019C593.376 150.713 591.234 148.46 588.89 149.15L586.319 149.906C586.107 149.969 585.902 150.054 585.709 150.162L573.015 157.214C572.675 157.403 572.301 157.524 571.915 157.57L560.61 158.927C560.207 158.975 559.819 159.104 559.468 159.307L547.451 166.24C547.152 166.412 546.827 166.532 546.488 166.593L541.964 167.416C541.657 167.472 541.36 167.575 541.084 167.723L527.5 175L523.275 177.958C522.77 178.311 522.17 178.5 521.554 178.5H516.37C515.5 178.5 514.673 178.878 514.103 179.535L509.197 185.196C508.746 185.716 508.13 186.065 507.452 186.185L501.315 187.268C500.478 187.416 499.743 187.912 499.292 188.632L495.859 194.125C495.323 194.983 495.255 196.054 495.679 196.972L497.245 200.364C497.71 201.371 498.692 202.039 499.799 202.102L524.5 203.5H543L559.247 202.217C560.801 202.095 562 200.797 562 199.238C562 198.445 561.685 197.685 561.125 197.125L556.754 192.754C556.585 192.585 556.437 192.397 556.314 192.192C554.463 189.088 553.863 187.047 554 183C554.701 178.66 555.671 176.577 558.5 173.5C562.793 169.837 565.401 169.069 570.5 170.5C574.118 171.592 575.968 172.53 578.407 174.509C578.799 174.827 579.101 175.246 579.263 175.724C580.027 177.979 580.022 179.568 579.41 181.717C579.229 182.35 579.688 183 580.347 183C580.741 183 581.095 182.759 581.239 182.392L591 157.5ZM481.803 200.934L480.366 207.761C480.14 208.833 480.517 209.943 481.349 210.657L482.815 211.913C483.262 212.296 483.586 212.801 483.748 213.367L485.328 218.897C485.441 219.295 485.636 219.665 485.899 219.984L493.394 229.056C494.323 230.18 495.924 230.474 497.191 229.753L511.25 221.75L518.827 217.437C521.412 215.965 520.511 212.034 517.543 211.836L512.855 211.524C512.619 211.508 512.386 211.464 512.16 211.394L496.937 206.637C496.647 206.546 496.346 206.5 496.042 206.5H490.391C489.509 206.5 488.671 206.112 488.101 205.438L483.852 200.417C483.629 200.152 483.3 200 482.954 200C482.398 200 481.918 200.39 481.803 200.934Z" fill="#314153"/>
</svg>