<?xml version="1.0" encoding="utf-8"?>
<svg viewBox="0 0 270 94" version="1.1" xmlns="http://www.w3.org/2000/svg">
  <defs>
    <path d="M278 0L278 0L278 94L0 94L0 0L278 0Z" id="path_1"/>
    <path d="M0 0L262 0L262 68L0 68L0 0Z" id="path_2"/>
    <clipPath id="clip_1">
      <path d="M278 0L278 0L278 94L0 94L0 0L278 0Z" clip-rule="evenodd" fill-rule="evenodd"/>
    </clipPath>
    <clipPath id="clip_2">
      <path d="M0 0L262 0L262 68L0 68L0 0Z" transform="matrix(1, 0, 0, 1, 0, 15.28399658203125)" clip-rule="evenodd" fill-rule="evenodd"/>
    </clipPath>
  </defs>
  <g id="Frame">
    <path d="M278 0L278 0L278 94L0 94L0 0L278 0Z" id="Frame" fill="#FFFFFF" fill-opacity="0" stroke="none"/>
    <g id="Beach-volleyball" clip-path="url(#clip_1)">
      <path d="M46 0L46 0L46 46L0 46L0 0L46 0Z" id="Beach-volleyball" fill="none" stroke="none" transform="translate(139 27)"/>
      <path d="M0 23C0 10.2975 10.2975 0 23 0C35.7026 0 46 10.2975 46 23C46 35.7026 35.7026 46 23 46C10.2975 46 0 35.7026 0 23ZM15.9955 4.73301C12.4023 6.1117 9.31924 8.5201 7.10763 11.597C8.14169 11.6647 9.02987 12.0493 9.56282 12.3371C9.76303 11.8626 10.0129 11.3986 10.3136 10.9529C11.6904 8.91167 13.8202 7.71521 15.9787 7.53702C15.8432 6.85377 15.7197 5.76536 15.9955 4.73301ZM5.38087 31.5018C8.54407 38.0452 15.245 42.5586 23 42.5586C24.5843 42.5586 26.1246 42.3702 27.5998 42.0147C25.4144 40.6712 22.6801 38.4534 20.3508 34.9193C16.3658 28.8733 16.0769 23.7836 16.1209 21.9888C14.6259 22.1458 13.1089 21.8155 11.8112 20.9401C11.3312 20.6164 10.9092 20.237 10.5469 19.8142C9.28507 21.0249 6.50267 23.9668 5.84216 26.9347C5.50118 28.4669 5.33852 30.0266 5.38087 31.5018ZM42.3046 26.1602C42.4717 25.1315 42.5586 24.0759 42.5586 23C42.5586 14.6862 37.3714 7.58397 30.0569 4.75319C29.1378 4.85049 28.1465 5.02654 27.0491 5.24696C24.3105 5.79702 21.3884 7.81585 20.2406 8.67315C21.9333 9.8652 22.8776 11.764 22.9874 13.7949C23.9315 13.6314 30.2205 12.7955 36.5283 18.1863C39.6042 20.815 41.333 23.7207 42.3046 26.1602Z" id="Shape" fill="#000000" fill-rule="evenodd" stroke="none" transform="translate(139 27)"/>
    </g>
    <g id="iDr--tt" clip-path="url(#clip_2)" transform="translate(8 -2.2839966)">
      <g transform="matrix(1, 0, 0, 1, 0.431677, -0.629591)" id="iDr--tt">
        <path d="M 5.184 31.463 L 5.184 19.439 L 19.872 19.439 L 19.872 31.463 L 5.184 31.463 Z M 1.728 75.455 L 1.728 63.647 L 4.896 63.647 L 4.896 47.231 L 1.728 47.231 L 1.728 35.423 L 21.456 35.423 L 21.456 63.647 L 24.624 63.647 L 24.624 75.455 L 1.728 75.455 Z M 29.784 63.647 L 33.384 63.647 L 33.384 31.319 L 29.784 31.319 L 29.784 19.439 L 59.016 19.439 C 67.032 19.439 73.404 21.635 78.132 26.027 C 82.86 30.419 85.224 37.559 85.224 47.447 C 85.224 57.335 82.86 64.475 78.132 68.867 C 73.404 73.259 67.032 75.455 59.016 75.455 L 29.784 75.455 L 29.784 63.647 Z M 57.72 63.647 C 59.352 63.647 60.576 63.215 61.392 62.351 C 62.208 61.487 62.616 60.143 62.616 58.319 L 62.616 36.575 C 62.616 33.023 60.984 31.247 57.72 31.247 L 53.544 31.247 L 53.544 63.647 L 57.72 63.647 Z M 121.272 34.415 C 122.232 34.415 123.144 34.511 124.008 34.703 C 124.872 34.895 125.592 35.135 126.168 35.423 L 126.168 49.175 C 124.2 48.359 122.088 47.951 119.832 47.951 C 116.808 47.951 114.48 48.743 112.848 50.327 C 111.216 51.911 110.4 54.263 110.4 57.383 L 110.4 63.647 L 116.88 63.647 L 116.88 75.455 L 90.672 75.455 L 90.672 63.647 L 93.84 63.647 L 93.84 47.231 L 90.672 47.231 L 90.672 35.423 L 110.4 35.423 L 110.4 40.679 C 111.744 38.663 113.28 37.115 115.008 36.035 C 116.736 34.955 118.824 34.415 121.272 34.415 Z M 198.456 76.463 C 193.368 76.463 189.54 75.227 186.972 72.755 C 184.404 70.283 183.12 66.119 183.12 60.263 L 183.12 47.231 L 179.952 47.231 L 179.952 35.423 C 181.776 35.423 183.144 34.955 184.056 34.019 C 184.968 33.083 185.424 31.799 185.424 30.167 L 185.424 26.927 L 200.688 26.927 L 200.688 35.423 L 210.408 35.423 L 210.408 47.231 L 200.688 47.231 L 200.688 59.039 C 200.688 60.623 201.036 61.787 201.732 62.531 C 202.428 63.275 203.472 63.647 204.864 63.647 C 206.688 63.647 208.68 63.431 210.84 62.999 L 210.84 74.303 C 209.496 74.831 207.684 75.323 205.404 75.779 C 203.124 76.235 200.808 76.463 198.456 76.463 Z M 233.928 76.463 C 228.84 76.463 225.012 75.227 222.444 72.755 C 219.876 70.283 218.592 66.119 218.592 60.263 L 218.592 47.231 L 215.424 47.231 L 215.424 35.423 C 217.248 35.423 218.616 34.955 219.528 34.019 C 220.44 33.083 220.896 31.799 220.896 30.167 L 220.896 26.927 L 236.16 26.927 L 236.16 35.423 L 245.88 35.423 L 245.88 47.231 L 236.16 47.231 L 236.16 59.039 C 236.16 60.623 236.508 61.787 237.204 62.531 C 237.9 63.275 238.944 63.647 240.336 63.647 C 242.16 63.647 244.152 63.431 246.312 62.999 L 246.312 74.303 C 244.968 74.831 243.156 75.323 240.876 75.779 C 238.596 76.235 236.28 76.463 233.928 76.463 Z"/>
      </g>
    </g>
  </g>
</svg>