<?xml version="1.0" encoding="utf-8"?>
<svg width="249px" height="68px" viewBox="0 0 249 68" version="1.1" xmlns:xlink="http://www.w3.org/1999/xlink" xmlns="http://www.w3.org/2000/svg">
  <defs>
    <path d="M249 0L249 0L249 68L0 68L0 0L249 0Z" id="path_1" />
    <path d="M0 0L262 0L262 68L0 68L0 0Z" id="path_2" />
    <clipPath id="clip_1">
      <use xlink:href="#path_1" clip-rule="evenodd" fill-rule="evenodd" />
    </clipPath>
    <clipPath id="clip_2">
      <use xlink:href="#path_2" clip-rule="evenodd" fill-rule="evenodd" transform="translate(0, 15.283997)" />
    </clipPath>
  </defs>
  <g id="Logo1">
    <path d="M249 0L249 0L249 68L0 68L0 0L249 0Z" id="Logo1" fill="none" stroke="none" />
    <g id="Group" clip-path="url(#clip_1)">
      <g id="Beach-volleyball" fill-opacity="1" transform="translate(131 14)">
        <path d="M46 0L46 0L46 46L0 46L0 0L46 0Z" id="Beach-volleyball" fill="none" stroke="none" />
        <path d="M0 23C0 10.2975 10.2975 0 23 0C35.7026 0 46 10.2975 46 23C46 35.7026 35.7026 46 23 46C10.2975 46 0 35.7026 0 23ZM15.9956 4.733C12.4023 6.11168 9.31927 8.52008 7.10765 11.597C8.1417 11.6647 9.02988 12.0493 9.56284 12.3371C9.76305 11.8626 10.0129 11.3986 10.3136 10.9528C11.6904 8.91162 13.8202 7.71517 15.9787 7.53699C15.8433 6.85374 15.7197 5.76533 15.9956 4.733ZM5.38091 31.5019C8.54412 38.0452 15.245 42.5586 23 42.5586C24.5843 42.5586 26.1246 42.3702 27.5998 42.0147C25.4144 40.6712 22.6801 38.4534 20.3508 34.9193C16.3658 28.8732 16.077 23.7836 16.1209 21.9888C14.626 22.1458 13.109 21.8155 11.8112 20.9401C11.3313 20.6164 10.9092 20.237 10.5469 19.8142C9.2851 21.0249 6.50271 23.9668 5.8422 26.9347C5.50122 28.4669 5.33856 30.0266 5.38091 31.5019ZM42.3046 26.1602C42.4717 25.1315 42.5586 24.0759 42.5586 23C42.5586 14.6862 37.3714 7.58396 30.0568 4.75318C29.1378 4.85048 28.1465 5.02653 27.0491 5.24695C24.3105 5.79701 21.3884 7.81584 20.2406 8.67314C21.9333 9.8652 22.8776 11.764 22.9874 13.7949C23.9315 13.6314 30.2205 12.7955 36.5284 18.1863C39.6042 20.8149 41.333 23.7206 42.3046 26.1602Z" id="Shape" fill="#000000" fill-rule="evenodd" stroke="none" />
      </g>
      <g id="iDr--tt" clip-path="url(#clip_2)" transform="translate(0 -15.283997)">
        <g transform="translate(0, 23.976)" id="iDr--tt">
          <path d="M4.752 30.6L4.752 18.576L19.44 18.576L19.44 30.6L4.752 30.6ZM1.296 74.592L1.296 62.784L4.464 62.784L4.464 46.368L1.296 46.368L1.296 34.56L21.024 34.56L21.024 62.784L24.192 62.784L24.192 74.592L1.296 74.592ZM29.352 62.784L32.952 62.784L32.952 30.456L29.352 30.456L29.352 18.576L58.584 18.576Q70.608 18.576 77.7 25.164Q84.792 31.752 84.792 46.584Q84.792 61.416 77.7 68.004Q70.608 74.592 58.584 74.592L29.352 74.592L29.352 62.784ZM57.288 62.784Q59.736 62.784 60.96 61.488Q62.184 60.192 62.184 57.456L62.184 35.712Q62.184 30.384 57.288 30.384L53.112 30.384L53.112 62.784L57.288 62.784ZM120.84 33.552Q122.28 33.552 123.576 33.84Q124.872 34.128 125.736 34.56L125.736 48.312Q122.784 47.088 119.4 47.088Q114.864 47.088 112.416 49.464Q109.968 51.84 109.968 56.52L109.968 62.784L116.448 62.784L116.448 74.592L90.24 74.592L90.24 62.784L93.408 62.784L93.408 46.368L90.24 46.368L90.24 34.56L109.968 34.56L109.968 39.816Q111.984 36.792 114.576 35.172Q117.168 33.552 120.84 33.552ZM198.024 75.6Q190.392 75.6 186.54 71.892Q182.688 68.184 182.688 59.4L182.688 46.368L179.52 46.368L179.52 34.56Q182.256 34.56 183.624 33.156Q184.992 31.752 184.992 29.304L184.992 26.064L200.256 26.064L200.256 34.56L209.976 34.56L209.976 46.368L200.256 46.368L200.256 58.176Q200.256 60.552 201.3 61.668Q202.344 62.784 204.432 62.784Q207.168 62.784 210.408 62.136L210.408 73.44Q208.392 74.232 204.972 74.916Q201.552 75.6 198.024 75.6ZM233.496 75.6Q225.864 75.6 222.012 71.892Q218.16 68.184 218.16 59.4L218.16 46.368L214.992 46.368L214.992 34.56Q217.728 34.56 219.096 33.156Q220.464 31.752 220.464 29.304L220.464 26.064L235.728 26.064L235.728 34.56L245.448 34.56L245.448 46.368L235.728 46.368L235.728 58.176Q235.728 60.552 236.772 61.668Q237.816 62.784 239.904 62.784Q242.64 62.784 245.88 62.136L245.88 73.44Q243.864 74.232 240.444 74.916Q237.024 75.6 233.496 75.6Z" />
        </g>
      </g>
    </g>
  </g>
</svg>